<?xml version="1.0" standalone="no"?>
<!DOCTYPE svg PUBLIC "-//W3C//DTD SVG 20010904//EN"
 "http://www.w3.org/TR/2001/REC-SVG-20010904/DTD/svg10.dtd">
<svg version="1.0" xmlns="http://www.w3.org/2000/svg"
 width="500.000000pt" height="500.000000pt" viewBox="0 0 500.000000 500.000000"
 preserveAspectRatio="xMidYMid meet">

<g transform="translate(0.000000,500.000000) scale(0.100000,-0.100000)"
fill="#000000" stroke="none">
<path d="M2319 4779 c-1034 -72 -1883 -825 -2078 -1842 -73 -383 -44 -783 85
-1167 44 -131 164 -376 241 -495 367 -560 975 -935 1648 -1015 128 -16 392
-16 520 0 845 101 1546 640 1859 1432 53 133 107 332 133 493 24 153 24 495
-1 655 -80 514 -317 973 -680 1317 -464 439 -1096 667 -1727 622z m306 -209
c66 -6 171 -20 234 -31 103 -20 118 -25 154 -58 49 -44 97 -108 97 -130 0 -13
-22 -20 -103 -33 -131 -21 -291 -74 -437 -144 l-115 -55 -90 16 c-153 27 -376
38 -510 26 -105 -9 -121 -8 -130 5 -5 9 -38 59 -72 112 l-62 97 62 29 c171 78
452 149 655 165 153 12 183 12 317 1z m735 -278 c72 -39 211 -130 250 -163
l25 -21 -25 14 c-119 70 -201 113 -286 148 -127 52 -121 49 -145 87 l-21 32
69 -30 c37 -17 97 -47 133 -67z m-1842 -14 c16 -24 48 -73 70 -109 l40 -66
-56 -64 c-124 -143 -245 -330 -302 -468 -31 -76 -33 -77 -98 -111 -145 -75
-359 -228 -475 -339 l-48 -46 -19 25 c-28 35 -70 124 -72 152 -4 58 145 337
270 505 84 111 281 310 390 392 81 62 250 170 264 171 4 0 20 -19 36 -42z
m1841 -99 c195 -104 403 -259 421 -313 40 -125 78 -370 86 -551 l7 -140 -109
-36 c-60 -20 -186 -64 -281 -97 l-172 -61 -63 51 c-137 110 -356 255 -548 363
-47 26 -88 52 -91 57 -4 6 -9 44 -13 87 -4 42 -18 162 -31 268 -14 105 -25
198 -25 207 0 18 100 71 219 117 136 52 333 94 460 98 36 1 63 -9 140 -50z
m-1074 -115 c65 -8 121 -17 124 -19 2 -3 -43 -5 -100 -5 -110 0 -282 -12 -439
-31 l-95 -11 -71 -73 c-82 -83 -183 -230 -245 -356 l-42 -86 89 -104 c120
-140 222 -267 204 -253 -102 76 -400 328 -400 337 0 28 112 240 181 342 40 61
107 145 149 188 l75 78 115 8 c138 10 293 5 455 -15z m1758 -247 c42 -12 105
-87 191 -228 182 -300 280 -621 302 -993 l7 -119 -59 6 c-33 3 -89 9 -125 13
l-67 6 -42 112 c-55 144 -135 313 -203 429 l-55 92 -6 160 c-6 167 -24 315
-56 450 -10 44 -16 83 -13 88 6 9 66 2 126 -16z m-2567 -599 c265 -215 266
-217 260 -226 -2 -4 -12 -56 -21 -115 -23 -157 -34 -420 -25 -587 8 -140 7
-145 -13 -160 -12 -8 -125 -88 -252 -177 l-230 -161 -45 25 c-189 107 -492
402 -521 507 -17 62 -14 353 6 481 l16 110 57 58 c76 78 226 203 314 263 90
60 229 142 244 143 5 1 100 -72 210 -161z m1224 44 c162 -93 320 -198 454
-301 l98 -76 -6 -280 c-4 -154 -12 -327 -19 -384 -14 -118 -2 -101 -145 -189
-104 -63 -448 -237 -549 -277 l-72 -28 -112 62 c-187 104 -408 248 -514 334
l-30 25 0 284 c1 269 4 321 36 506 l11 62 107 61 c185 105 552 278 591 279 8
0 76 -35 150 -78z m-2127 -306 c-38 -105 -54 -213 -61 -391 -6 -201 -16 -190
-28 30 -7 138 5 298 32 418 l16 67 28 -41 c27 -41 28 -44 13 -83z m3124 60
c-3 -8 -11 -32 -18 -54 -13 -44 -14 -45 -194 -115 l-60 -23 -2 -65 c-1 -35 -7
-136 -14 -224 l-11 -159 -40 -58 c-23 -32 -43 -58 -45 -58 -3 0 -2 28 2 63 5
34 11 179 14 322 l6 259 175 63 c96 34 179 62 184 63 4 0 6 -6 3 -14z m791
-653 l43 -5 -6 -67 c-34 -348 -184 -722 -407 -1016 -37 -49 -90 -115 -117
-145 l-50 -55 -76 -3 c-42 -3 -75 0 -75 5 0 5 13 49 30 97 54 162 90 378 90
548 0 69 0 69 54 136 92 114 185 261 249 395 l62 127 80 -5 c44 -3 99 -8 123
-12z m-3556 -536 c42 -32 111 -79 154 -105 l76 -47 34 -95 c46 -130 171 -381
229 -460 l48 -64 -22 -39 c-13 -22 -47 -77 -77 -123 l-55 -85 -46 32 c-81 56
-218 176 -298 261 -202 214 -359 474 -451 744 l-37 111 25 54 c14 30 39 71 57
91 l32 37 127 -128 c70 -70 162 -153 204 -184z m907 193 c98 -74 275 -190 406
-265 55 -31 93 -55 85 -52 -35 11 -344 156 -456 213 l-121 62 -199 -140 c-109
-76 -205 -143 -213 -147 -11 -7 -6 -37 23 -167 21 -87 39 -167 42 -176 3 -10
0 -18 -6 -18 -14 0 -84 148 -134 284 -36 96 -37 100 -19 116 27 26 495 350
505 350 5 0 44 -27 87 -60z m1701 -133 l255 -123 -2 -115 c-2 -187 -47 -393
-117 -543 -32 -70 -35 -72 -132 -132 -123 -76 -233 -132 -377 -191 -130 -53
-136 -53 -305 2 -119 38 -299 125 -404 194 -61 40 -67 47 -61 70 4 14 32 149
63 299 l55 274 151 67 c179 80 384 186 509 264 50 30 95 56 100 56 6 0 125
-55 265 -122z m-1858 -922 c129 -25 335 -38 483 -31 l140 7 85 -57 c107 -72
308 -170 425 -208 50 -16 94 -33 99 -37 11 -10 -30 -71 -81 -121 -35 -34 -45
-38 -123 -47 -109 -14 -371 -14 -480 0 -236 29 -452 94 -668 201 -79 39 -142
74 -140 77 2 4 37 60 78 124 55 85 79 115 91 112 9 -3 50 -12 91 -20z"/>
</g>
</svg>
